<?xml version="1.0" encoding="UTF-8"?>
<svg xmlns="http://www.w3.org/2000/svg" version="1.1" viewBox="0 0 1455.17 544">
  <!-- Generator: Adobe Illustrator 30.1.0, SVG Export Plug-In . SVG Version: 2.1.1 Build 136)  -->
  <defs>
    <style>
      .st0 {
        fill: #7f3200;
      }

      .st1 {
        fill: #fff;
      }

      .st2 {
        display: none;
        fill: #0a3651;
      }

      .st3 {
        fill: #942e00;
      }

      .st4 {
        fill: #a37254;
      }
    </style>
  </defs>
  <g id="Layer_1">
    <g>
      <path d="M1157.11,858.68c66.41,3.35,101.58,49.43,102.81,111.57.2,10.09-3.84,14.33-14.45,14.23-44.94-.39-89.89-.15-134.83-.14-4.85,0-9.71,0-16.4,0,2.54,19.66,12.81,32.11,27.83,40.01,29.03,15.26,58.29,14.95,84.88-5.3,10.56-8.05,16.41-8.13,25.14,1.99,16.62,19.29,16.99,20.77-3.8,35.37-51.4,36.09-132.38,23.1-164.66-27.64-23.92-37.6-24.43-77.87-3.81-116.71,19.98-37.63,54.1-53.42,97.3-53.4M1198.98,919.14c-19.44-20.42-42.79-25.83-68.73-15.69-19.22,7.51-32.04,21.53-36.07,43.81h117.08c-.2-11.4-4.95-19.3-12.27-28.12Z"/>
      <path d="M489.61,984.02c-7.44-54.75,20.19-102.19,68.61-119.11,50.89-17.78,106.38.82,132.4,44.36,31.25,52.29,13.91,124.63-36.54,152.48-56.36,31.11-126.47,12.08-154.06-41.88-5.57-10.89-9.25-22.41-10.42-35.85M540.31,937.86c-1.49,5.17-3.32,10.27-4.43,15.52-10.53,49.57,31.49,92.25,77.53,78.96,31.41-9.07,45.17-35.78,45.78-65.82.64-31.52-19.65-57.48-47.46-64.52-28.23-7.14-54.32,5.4-71.43,35.85Z"/>
      <path d="M872.16,878.33c.18,2.7.36,4.43.84,9.14,15.26-16.96,33.04-25.13,53.5-27.98,18.81-2.62,21.11-.92,21.2,18,0,1.8,0,3.59,0,5.39-.01,25.21.94,22.73-22.15,23.46-28.22.89-50.13,25.95-50.8,57.84-.65,31.44-.71,62.91-.09,94.34.24,11.96-3.97,15.44-15.61,15.34-31.88-.27-31.89.18-31.89-32.31,0-54.82.33-109.63-.27-164.44-.14-12.59,4.09-17.22,16.24-15.8,4.43.52,9.04.56,13.46-.03,12.72-1.7,17.26,4.07,15.57,17.05Z"/>
      <path d="M783.69,1063.06c-12.47,13.19-25.84,16.65-39.22,10.83-11.45-4.98-19.87-18.98-18.96-31.53,1.45-19.83,16.4-31.8,37.13-29.72,17.22,1.73,28.51,17.07,26.36,35.7-.58,4.99-2.08,9.61-5.31,14.72Z"/>
      <path d="M1291.21,1068.77c-11.26-11.59-13.05-24.21-8.02-38.02,3.93-10.78,12.41-16.25,23.24-18.01,15.27-2.49,28.66,4.31,34.85,17.11,5.96,12.32,2.78,29.07-7.28,38.44-11.11,10.33-26.38,10.77-42.79.48Z"/>
      <path d="M988.3,1012.64c24.26.12,38.26,13.42,36.93,33.88-1.23,18.98-16.66,31.66-36.06,29.64-14.2-1.48-25.58-13.11-26.93-27.52-1.73-18.54,5.93-29.57,26.06-36Z"/>
      <path d="M286.36,1003.97c-.54,6.54-4.16,10.45-8.03,14.28-13.58,13.47-26.91,27.19-40.69,40.44-6.15,5.9-9.35,11.92-9.09,20.99.49,17.06-12.47,30.29-28.97,31.57-14.55,1.13-28.87-9.46-32.08-23.73-3.74-16.63,4.67-36.21,20.96-36.61,28.14-.7,38.31-23.37,55.78-37.2,1.3-1.03,2.46-2.32,3.45-3.66,3.28-4.43,10.38-6.94,6.02-14.98-4.31-7.96-6.66-16.18-19.06-15.11-15.32,1.32-30.84.57-46.27.24-7.11-.15-12.35,1.52-17.49,7.18-9.79,10.78-23.79,12.84-35.83,6.97-11.99-5.84-19.54-19.46-17.84-32.21,1.72-12.97,11.45-23.72,24.32-26.4,11.43-2.38,21.63.89,29.3,9.32,5.58,6.14,11.78,7.99,19.58,7.9,20.11-.24,40.23.1,60.33-.17,9.54-.13,16.02,3.53,19.6,12.5,5.08,12.75,12.33,24.58,16.02,38.68M148.56,958.16c-4.14.14-7.07,2.09-8.13,6.11-1.16,4.43.4,8.12,4.58,9.96,4.85,2.14,8.73-.18,10.78-4.46,2.78-5.82-.18-9.47-7.23-11.61Z"/>
      <path d="M341.86,804.51c.07,9.85-3.35,17.55-10.26,22.91-5.55,4.31-6.62,9.37-6.55,15.76.23,19.47-.17,38.95.2,58.41.23,12.17-4.18,20.44-15.94,25.02-9.05,3.52-17.77,7.96-26.37,12.48-9.53,5.01-16.96,3.02-24.2-4.68-13.56-14.42-27.89-28.13-41.42-42.59-5.79-6.18-11.95-8.42-20.39-8.1-13.6.53-24.03-7.29-28.59-19.66-4.69-12.74-1.31-25.65,9.08-34.65,9.97-8.63,23.91-10.04,35.66-3.3,11.33,6.5,16.41,16.79,15.41,29.47-.48,6.06,1.12,10.05,5.32,14.11,12.31,11.9,24.33,24.1,36.35,36.28,3.58,3.63,7.18,6.27,12.3,3.1,5.65-3.49,14.29-3.78,14.27-13.38-.04-19.13-.12-38.27.03-57.4.04-5.12-3.26-7.69-6.4-10.75-11.19-10.95-13.54-25.68-6.35-38.58,6.98-12.52,19.84-18.25,34.18-15.23,13.8,2.91,22.36,13.72,23.67,30.78M202.71,858.84c4.41-5.11,4.08-9.93-1.73-13.39-4.63-2.75-8.36-.32-11.01,3.77-1.59,2.44-1.65,5.16,0,7.57,2.93,4.27,6.95,4.8,12.74,2.04M308.74,812.06c4.47.59,7.84-.98,9.46-5.28,1.1-2.93.92-5.99-1.46-8.28-3.44-3.32-7.5-4.83-11.25-.8-4.81,5.15-4.12,10.03,3.25,14.37Z"/>
      <path d="M310.94,1159.82c-14.83-.64-24.26-7.76-28.98-20.66-4.62-12.63-1.64-24.05,8.13-33.06,5.21-4.81,7.01-10.02,6.91-16.84-.3-19.81,0-39.62-.28-59.43-.15-10.5,3.54-18.08,13.49-22.47,9.21-4.06,18.3-8.42,27.23-13.06,9.72-5.05,17.9-3.48,25.49,4.22,14.62,14.82,29.47,29.4,44.11,44.2,3.92,3.97,7.56,6.24,13.94,5.65,18.44-1.69,34.99,13.58,35.04,31.14.04,16.54-15.28,31.94-31.59,31.76-18.17-.21-32.44-15.82-31-34.95.43-5.74-1.14-9.49-4.96-13.26-12.43-12.26-24.66-24.72-37.01-37.06-2.82-2.82-5.65-6.44-10.29-3.47-5.88,3.76-15.66,3.78-15.89,13.31-.47,19.8-.03,39.61-.05,59.42,0,4.64,3.18,7.08,6.03,9.95,9.53,9.59,13.4,20.9,8.74,33.99-4.64,13.05-14.35,19.79-29.04,20.6M426.11,1071.44c-6.83-.4-10.27,3.01-9.55,9.64.56,5.14,4.3,7.39,9.38,6.78,3.19-.38,5.8-2.19,6.71-5.34,1.42-4.91-.67-8.45-6.54-11.08M317.27,1134.2c2.98-5.56,2.3-10.28-3.55-13.35-3.95-2.07-7.02,0-9.47,3.03-2.39,2.96-2.22,6.31-.26,9.26,3.18,4.78,7.54,4.63,13.29,1.06Z"/>
      <path d="M227.25,937.39c-11.62.05-22.35.09-33.09.13-7.89.03-10.19-3.43-7.2-10.83,3.84-9.52,6.58-19.58,14.06-28.42,13.65,11.33,24.79,23.89,36.57,35.72-3.35,3.87-6.56,3.06-10.34,3.39Z"/>
      <path d="M227.5,995.47c3.7.45,6.96-.96,10.03,3.1-11.8,11.72-22.39,24.77-36.67,36.02-8.21-10.18-11.72-21.93-14.71-33.69-1.4-5.5,3.82-5.27,7.37-5.32,11.03-.16,22.06-.09,33.99-.11Z"/>
      <path d="M430.99,1016.99c-2.82,6.42-4.64,12.55-9.36,16.63-12.14-12.54-23.8-24.59-36.49-37.69,16.02,0,31.76-.2,47.49.13,4.17.09,4.03,3.94,3.17,6.95-1.28,4.48-2.97,8.85-4.81,13.97Z"/>
      <path d="M253.34,868.21c-3.71-3.78-7.93-6.2-10.24-12.53,11.12-6.74,22.81-12.21,37.17-15.44,2.24,17.67.91,34.39.87,53.28-12.16-6.72-18.71-16.97-27.81-25.31Z"/>
      <path d="M345.97,1041.93c11.48,11.09,22.43,21.74,34.78,33.74-13.51,8.11-24.95,14.23-40.16,16.63,0-17.09-.09-32.99.07-48.89.03-3.44,2.22-3.66,5.31-1.49Z"/>
      <path d="M264.07,1087.54c-7.42-3.16-14.18-5.92-20.96-11.63,11.28-13.38,23.5-24.73,36.67-35.98,2.32,17.1,1.91,33.75,1.2,50.3-6.51,2.31-11.19-1.02-16.91-2.69Z"/>
      <path d="M354.04,843.69c8.75,3.53,17.02,6.26,25.19,12.45-11.34,13.34-23.11,25.16-37.58,38.04v-52.3c4.42-2.29,7.93.47,12.39,1.8Z"/>
    </g>
    <g id="color">
      <rect class="st2" width="1455.17" height="544"/>
      <path class="st4" d="M1157.11,174.39c66.41,3.35,101.58,49.43,102.81,111.57.2,10.09-3.84,14.33-14.45,14.23-44.94-.39-89.89-.15-134.83-.14-4.85,0-9.71,0-16.4,0,2.54,19.66,12.81,32.11,27.83,40.01,29.03,15.26,58.29,14.95,84.88-5.3,10.56-8.05,16.41-8.13,25.14,1.99,16.62,19.29,16.99,20.77-3.8,35.37-51.4,36.09-132.38,23.1-164.66-27.64-23.92-37.6-24.43-77.87-3.81-116.71,19.98-37.63,54.1-53.42,97.3-53.4M1198.98,234.85c-19.44-20.42-42.79-25.83-68.73-15.69-19.22,7.51-32.04,21.53-36.07,43.81h117.08c-.2-11.4-4.95-19.3-12.27-28.12Z"/>
      <path class="st4" d="M489.61,299.73c-7.44-54.75,20.19-102.19,68.61-119.11,50.89-17.78,106.38.82,132.4,44.36,31.25,52.29,13.91,124.63-36.54,152.48-56.36,31.11-126.47,12.08-154.06-41.88-5.57-10.89-9.25-22.41-10.42-35.85M540.31,253.57c-1.49,5.17-3.32,10.27-4.43,15.52-10.53,49.57,31.49,92.25,77.53,78.96,31.41-9.07,45.17-35.78,45.78-65.82.64-31.52-19.65-57.48-47.46-64.52-28.23-7.14-54.32,5.4-71.43,35.85Z"/>
      <path class="st4" d="M872.16,194.05c.18,2.7.36,4.43.84,9.14,15.26-16.96,33.04-25.13,53.5-27.98,18.81-2.62,21.11-.92,21.2,18,0,1.8,0,3.59,0,5.39-.01,25.21.94,22.73-22.15,23.46-28.22.89-50.13,25.95-50.8,57.84-.65,31.44-.71,62.91-.09,94.34.24,11.96-3.97,15.44-15.61,15.34-31.88-.27-31.89.18-31.89-32.31,0-54.82.33-109.63-.27-164.44-.14-12.59,4.09-17.22,16.24-15.8,4.43.52,9.04.56,13.46-.03,12.72-1.7,17.26,4.07,15.57,17.05Z"/>
      <path class="st0" d="M783.69,378.77c-12.47,13.19-25.84,16.65-39.22,10.83-11.45-4.98-19.87-18.98-18.96-31.53,1.45-19.83,16.4-31.8,37.13-29.72,17.22,1.73,28.51,17.07,26.36,35.7-.58,4.99-2.08,9.61-5.31,14.72Z"/>
      <path class="st0" d="M1291.21,384.48c-11.26-11.59-13.05-24.21-8.02-38.02,3.93-10.78,12.41-16.25,23.24-18.01,15.27-2.49,28.66,4.31,34.85,17.11,5.96,12.32,2.78,29.07-7.28,38.44-11.11,10.33-26.38,10.77-42.79.48Z"/>
      <path class="st0" d="M988.3,328.35c24.26.12,38.26,13.42,36.93,33.88-1.23,18.98-16.66,31.66-36.06,29.64-14.2-1.48-25.58-13.11-26.93-27.52-1.73-18.54,5.93-29.57,26.06-36Z"/>
      <path class="st3" d="M286.28,311.02c-.54,6.54-4.16,10.45-8.03,14.28-13.58,13.47-26.91,27.19-40.69,40.44-6.15,5.9-9.35,11.92-9.09,20.99.49,17.06-12.47,30.29-28.97,31.57-14.55,1.13-28.87-9.46-32.08-23.73-3.74-16.63,4.67-36.21,20.96-36.61,28.14-.7,38.31-23.37,55.78-37.2,1.3-1.03,2.46-2.32,3.45-3.66,3.28-4.43,10.38-6.94,6.02-14.98-4.31-7.96-6.66-16.18-19.06-15.11-15.32,1.32-30.84.57-46.27.24-7.11-.15-12.35,1.52-17.49,7.18-9.79,10.78-23.79,12.84-35.83,6.97-11.99-5.84-19.54-19.46-17.84-32.21,1.72-12.97,11.45-23.72,24.32-26.4,11.43-2.38,21.63.89,29.3,9.32,5.58,6.14,11.78,7.99,19.58,7.9,20.11-.24,40.23.1,60.33-.17,9.54-.13,16.02,3.53,19.6,12.5,5.08,12.75,12.33,24.58,16.02,38.68M148.48,265.2c-4.14.14-7.07,2.09-8.13,6.11-1.16,4.43.4,8.12,4.58,9.96,4.85,2.14,8.73-.18,10.78-4.46,2.78-5.82-.18-9.47-7.23-11.61Z"/>
      <path class="st1" d="M341.77,111.55c.07,9.85-3.35,17.55-10.26,22.91-5.55,4.31-6.62,9.37-6.55,15.76.23,19.47-.17,38.95.2,58.41.23,12.17-4.18,20.44-15.94,25.02-9.05,3.52-17.77,7.96-26.37,12.48-9.53,5.01-16.96,3.02-24.2-4.68-13.56-14.42-27.89-28.13-41.42-42.59-5.79-6.18-11.95-8.42-20.39-8.1-13.6.53-24.03-7.29-28.59-19.66-4.69-12.74-1.31-25.65,9.08-34.65,9.97-8.63,23.91-10.04,35.66-3.3,11.33,6.5,16.41,16.79,15.41,29.47-.48,6.06,1.12,10.05,5.32,14.11,12.31,11.9,24.33,24.1,36.35,36.28,3.58,3.63,7.18,6.27,12.3,3.1,5.65-3.49,14.29-3.78,14.27-13.38-.04-19.13-.12-38.27.03-57.4.04-5.12-3.26-7.69-6.4-10.75-11.19-10.95-13.54-25.68-6.35-38.58,6.98-12.52,19.84-18.25,34.18-15.23,13.8,2.91,22.36,13.72,23.67,30.78M202.62,165.88c4.41-5.11,4.08-9.93-1.73-13.39-4.63-2.75-8.36-.32-11.01,3.77-1.59,2.44-1.65,5.16,0,7.57,2.93,4.27,6.95,4.8,12.74,2.04M308.66,119.1c4.47.59,7.84-.98,9.46-5.28,1.1-2.93.92-5.99-1.46-8.28-3.44-3.32-7.5-4.83-11.25-.8-4.81,5.15-4.12,10.03,3.25,14.37Z"/>
      <path class="st1" d="M310.86,466.86c-14.83-.64-24.26-7.76-28.98-20.66-4.62-12.63-1.64-24.05,8.13-33.06,5.21-4.81,7.01-10.02,6.91-16.84-.3-19.81,0-39.62-.28-59.43-.15-10.5,3.54-18.08,13.49-22.47,9.21-4.06,18.3-8.42,27.23-13.06,9.72-5.05,17.9-3.48,25.49,4.22,14.62,14.82,29.47,29.4,44.11,44.2,3.92,3.97,7.56,6.24,13.94,5.65,18.44-1.69,34.99,13.58,35.04,31.14.04,16.54-15.28,31.94-31.59,31.76-18.17-.21-32.44-15.82-31-34.95.43-5.74-1.14-9.49-4.96-13.26-12.43-12.26-24.66-24.72-37.01-37.06-2.82-2.82-5.65-6.44-10.29-3.47-5.88,3.76-15.66,3.78-15.89,13.31-.47,19.8-.03,39.61-.05,59.42,0,4.64,3.18,7.08,6.03,9.95,9.53,9.59,13.4,20.9,8.74,33.99-4.64,13.05-14.35,19.79-29.04,20.6M426.03,378.49c-6.83-.4-10.27,3.01-9.55,9.64.56,5.14,4.3,7.39,9.38,6.78,3.19-.38,5.8-2.19,6.71-5.34,1.42-4.91-.67-8.45-6.54-11.08M317.19,441.24c2.98-5.56,2.3-10.28-3.55-13.35-3.95-2.07-7.02,0-9.47,3.03-2.39,2.96-2.22,6.31-.26,9.26,3.18,4.78,7.54,4.63,13.29,1.06Z"/>
      <path class="st4" d="M227.17,244.43c-11.62.05-22.35.09-33.09.13-7.89.03-10.19-3.43-7.2-10.83,3.84-9.52,6.58-19.58,14.06-28.42,13.65,11.33,24.79,23.89,36.57,35.72-3.35,3.87-6.56,3.06-10.34,3.39Z"/>
      <path class="st1" d="M227.42,302.51c3.7.45,6.96-.96,10.03,3.1-11.8,11.72-22.39,24.77-36.67,36.02-8.21-10.18-11.72-21.93-14.71-33.69-1.4-5.5,3.82-5.27,7.37-5.32,11.03-.16,22.06-.09,33.99-.11Z"/>
      <path class="st4" d="M430.91,324.03c-2.82,6.42-4.64,12.55-9.36,16.63-12.14-12.54-23.8-24.59-36.49-37.69,16.02,0,31.76-.2,47.49.13,4.17.09,4.03,3.94,3.17,6.95-1.28,4.48-2.97,8.85-4.81,13.97Z"/>
      <path class="st0" d="M253.26,175.26c-3.71-3.78-7.93-6.2-10.24-12.53,11.12-6.74,22.81-12.21,37.17-15.44,2.24,17.67.91,34.39.87,53.28-12.16-6.72-18.71-16.97-27.81-25.31Z"/>
      <path class="st0" d="M345.89,348.98c11.48,11.09,22.43,21.74,34.78,33.74-13.51,8.11-24.95,14.23-40.16,16.63,0-17.09-.09-32.99.07-48.89.03-3.44,2.22-3.66,5.31-1.49Z"/>
      <path class="st4" d="M263.99,394.59c-7.42-3.16-14.18-5.92-20.96-11.63,11.28-13.38,23.5-24.73,36.67-35.98,2.32,17.1,1.91,33.75,1.2,50.3-6.51,2.31-11.19-1.02-16.91-2.69Z"/>
      <path class="st4" d="M353.96,150.73c8.75,3.53,17.02,6.26,25.19,12.45-11.34,13.34-23.11,25.16-37.58,38.04v-52.3c4.42-2.29,7.93.47,12.39,1.8Z"/>
    </g>
  </g>
  <g id="Layer_2">
    <g>
      <path d="M2056.23,995.31c-.54,6.54-4.16,10.45-8.03,14.28-13.58,13.47-26.91,27.19-40.69,40.44-6.15,5.9-9.35,11.92-9.09,20.99.49,17.06-12.47,30.29-28.97,31.57-14.55,1.13-28.87-9.46-32.08-23.73-3.74-16.63,4.67-36.21,20.96-36.61,28.14-.7,38.31-23.37,55.78-37.2,1.3-1.03,2.46-2.32,3.45-3.66,3.28-4.43,10.38-6.94,6.02-14.98-4.31-7.96-6.66-16.18-19.06-15.11-15.32,1.32-30.84.57-46.27.24-7.11-.15-12.35,1.52-17.49,7.18-9.79,10.78-23.79,12.84-35.83,6.97-11.99-5.84-19.54-19.46-17.84-32.21,1.72-12.97,11.45-23.72,24.32-26.4,11.43-2.38,21.63.89,29.3,9.32,5.58,6.14,11.78,7.99,19.58,7.9,20.11-.24,40.23.1,60.33-.17,9.54-.13,16.02,3.53,19.6,12.5,5.08,12.75,12.33,24.58,16.02,38.68M1918.43,949.49c-4.14.14-7.07,2.09-8.13,6.11-1.16,4.43.4,8.12,4.58,9.96,4.85,2.14,8.73-.18,10.78-4.46,2.78-5.82-.18-9.47-7.23-11.61Z"/>
      <path d="M2273.26,967.14c-12.37,25.42-36.24,29.28-54.63,9.19-3.74-4.09-7.7-4.7-12.48-4.69-20.47.03-40.94-.28-61.4.13-11.94.24-19.73-4.46-24.1-15.66-3.04-7.8-7.13-15.18-10.44-22.88-6.21-14.48-5.02-19.45,6.04-30.32,14.35-14.11,28.45-28.47,42.87-42.51,3.68-3.58,4.95-6.82,4.21-12.26-2.42-17.7,10.95-33.43,28.51-34.66,18.09-1.27,33.01,11.63,34.14,29.53,1.11,17.6-12.81,32.54-31.2,31.87-9.06-.33-15.1,2.77-20.95,9.02-10.31,11.02-21.05,21.65-31.89,32.16-4.42,4.28-6.2,8.28-2.77,14.06,3.69,6.23,3.77,14.96,15.02,14.36,17.07-.91,34.22-.45,51.32-.2,5.9.09,9.91-2.04,13.89-6.36,11.39-12.37,25.41-14.77,39.1-7.47,12.98,6.92,18.36,19.78,14.77,36.71M2235.5,955.21c-1.77,5.2.99,8.31,5.15,10.45,3.03,1.56,5.84.3,8.27-1.72,2.92-2.43,3.48-5.63,2.28-9.03-2.19-6.25-8.12-6.59-15.7.3Z"/>
      <path d="M2111.73,795.84c.07,9.85-3.35,17.55-10.26,22.91-5.55,4.31-6.62,9.37-6.55,15.76.23,19.47-.17,38.95.2,58.41.23,12.17-4.18,20.44-15.94,25.02-9.05,3.52-17.77,7.96-26.37,12.48-9.53,5.01-16.96,3.02-24.2-4.68-13.56-14.42-27.89-28.13-41.42-42.59-5.79-6.18-11.95-8.42-20.39-8.1-13.6.53-24.03-7.29-28.59-19.66-4.69-12.74-1.31-25.65,9.08-34.65,9.97-8.63,23.91-10.04,35.66-3.3,11.33,6.5,16.41,16.79,15.41,29.47-.48,6.06,1.12,10.05,5.32,14.11,12.31,11.9,24.33,24.1,36.35,36.28,3.58,3.63,7.18,6.27,12.3,3.1,5.65-3.49,14.29-3.78,14.27-13.38-.04-19.13-.12-38.27.03-57.4.04-5.12-3.26-7.69-6.4-10.75-11.19-10.95-13.54-25.68-6.35-38.58,6.98-12.52,19.84-18.25,34.18-15.23,13.8,2.91,22.36,13.72,23.67,30.78M1972.58,850.17c4.41-5.11,4.08-9.93-1.73-13.39-4.63-2.75-8.36-.32-11.01,3.77-1.59,2.44-1.65,5.16,0,7.57,2.93,4.27,6.95,4.8,12.74,2.04M2078.61,803.39c4.47.59,7.84-.98,9.46-5.28,1.1-2.93.92-5.99-1.46-8.28-3.44-3.32-7.5-4.83-11.25-.8-4.81,5.15-4.12,10.03,3.25,14.37Z"/>
      <path d="M2080.81,1151.15c-14.83-.64-24.26-7.76-28.98-20.66-4.62-12.63-1.64-24.05,8.13-33.06,5.21-4.81,7.01-10.02,6.91-16.84-.3-19.81,0-39.62-.28-59.43-.15-10.5,3.54-18.08,13.49-22.47,9.21-4.06,18.3-8.42,27.23-13.06,9.72-5.05,17.9-3.48,25.49,4.22,14.62,14.82,29.47,29.4,44.11,44.2,3.92,3.97,7.56,6.24,13.94,5.65,18.44-1.69,34.99,13.58,35.04,31.14.04,16.54-15.28,31.94-31.59,31.76-18.17-.21-32.44-15.82-31-34.95.43-5.74-1.14-9.49-4.96-13.26-12.43-12.26-24.66-24.72-37.01-37.06-2.82-2.82-5.65-6.44-10.29-3.47-5.88,3.76-15.66,3.78-15.89,13.31-.47,19.8-.03,39.61-.05,59.42,0,4.64,3.18,7.08,6.03,9.95,9.53,9.59,13.4,20.9,8.74,33.99-4.64,13.05-14.35,19.79-29.04,20.6M2195.98,1062.77c-6.83-.4-10.27,3.01-9.55,9.64.56,5.14,4.3,7.39,9.38,6.78,3.19-.38,5.8-2.19,6.71-5.34,1.42-4.91-.67-8.45-6.54-11.08M2087.14,1125.53c2.98-5.56,2.3-10.28-3.55-13.35-3.95-2.07-7.02,0-9.47,3.03-2.39,2.96-2.22,6.31-.26,9.26,3.18,4.78,7.54,4.63,13.29,1.06Z"/>
      <path d="M2185.52,928.87c-10.77-.61-20.81,1.83-30.26-1.45,12.51-12.35,24.49-24.18,37.2-36.71,6.37,8.88,10.7,20.19,13.46,32.17.9,3.89-2.04,5.44-5.35,5.66-4.67.31-9.37.24-15.05.33Z"/>
      <path d="M1997.12,928.72c-11.62.05-22.35.09-33.09.13-7.89.03-10.19-3.43-7.2-10.83,3.84-9.52,6.58-19.58,14.06-28.42,13.65,11.33,24.79,23.89,36.57,35.72-3.35,3.87-6.56,3.06-10.34,3.39Z"/>
      <path d="M1997.37,986.8c3.7.45,6.96-.96,10.03,3.1-11.8,11.72-22.39,24.77-36.67,36.02-8.21-10.18-11.72-21.93-14.71-33.69-1.4-5.5,3.82-5.27,7.37-5.32,11.03-.16,22.06-.09,33.99-.11Z"/>
      <path d="M2200.86,1008.32c-2.82,6.42-4.64,12.55-9.36,16.63-12.14-12.54-23.8-24.59-36.49-37.69,16.02,0,31.76-.2,47.49.13,4.17.09,4.03,3.94,3.17,6.95-1.28,4.48-2.97,8.85-4.81,13.97Z"/>
      <path d="M2023.21,859.55c-3.71-3.78-7.93-6.2-10.24-12.53,11.12-6.74,22.81-12.21,37.17-15.44,2.24,17.67.91,34.39.87,53.28-12.16-6.72-18.71-16.97-27.81-25.31Z"/>
      <path d="M2115.84,1033.27c11.48,11.09,22.43,21.74,34.78,33.74-13.51,8.11-24.95,14.23-40.16,16.63,0-17.09-.09-32.99.07-48.89.03-3.44,2.22-3.66,5.31-1.49Z"/>
      <path d="M2033.94,1078.88c-7.42-3.16-14.18-5.92-20.96-11.63,11.28-13.38,23.5-24.73,36.67-35.98,2.32,17.1,1.91,33.75,1.2,50.3-6.51,2.31-11.19-1.02-16.91-2.69Z"/>
      <path d="M2123.91,835.02c8.75,3.53,17.02,6.26,25.19,12.45-11.34,13.34-23.11,25.16-37.58,38.04v-52.3c4.42-2.29,7.93.47,12.39,1.8Z"/>
    </g>
    <g id="color1" data-name="color">
      <rect class="st2" x="1808.59" width="544" height="544"/>
      <path class="st3" d="M2056.23,311.02c-.54,6.54-4.16,10.45-8.03,14.28-13.58,13.47-26.91,27.19-40.69,40.44-6.15,5.9-9.35,11.92-9.09,20.99.49,17.06-12.47,30.29-28.97,31.57-14.55,1.13-28.87-9.46-32.08-23.73-3.74-16.63,4.67-36.21,20.96-36.61,28.14-.7,38.31-23.37,55.78-37.2,1.3-1.03,2.46-2.32,3.45-3.66,3.28-4.43,10.38-6.94,6.02-14.98-4.31-7.96-6.66-16.18-19.06-15.11-15.32,1.32-30.84.57-46.27.24-7.11-.15-12.35,1.52-17.49,7.18-9.79,10.78-23.79,12.84-35.83,6.97-11.99-5.84-19.54-19.46-17.84-32.21,1.72-12.97,11.45-23.72,24.32-26.4,11.43-2.38,21.63.89,29.3,9.32,5.58,6.14,11.78,7.99,19.58,7.9,20.11-.24,40.23.1,60.33-.17,9.54-.13,16.02,3.53,19.6,12.5,5.08,12.75,12.33,24.58,16.02,38.68M1918.43,265.2c-4.14.14-7.07,2.09-8.13,6.11-1.16,4.43.4,8.12,4.58,9.96,4.85,2.14,8.73-.18,10.78-4.46,2.78-5.82-.18-9.47-7.23-11.61Z"/>
      <path class="st3" d="M2273.26,282.86c-12.37,25.42-36.24,29.28-54.63,9.19-3.74-4.09-7.7-4.7-12.48-4.69-20.47.03-40.94-.28-61.4.13-11.94.24-19.73-4.46-24.1-15.66-3.04-7.8-7.13-15.18-10.44-22.88-6.21-14.48-5.02-19.45,6.04-30.32,14.35-14.11,28.45-28.47,42.87-42.51,3.68-3.58,4.95-6.82,4.21-12.26-2.42-17.7,10.95-33.43,28.51-34.66,18.09-1.27,33.01,11.63,34.14,29.53,1.11,17.6-12.81,32.54-31.2,31.87-9.06-.33-15.1,2.77-20.95,9.02-10.31,11.02-21.05,21.65-31.89,32.16-4.42,4.28-6.2,8.28-2.77,14.06,3.69,6.23,3.77,14.96,15.02,14.36,17.07-.91,34.22-.45,51.32-.2,5.9.09,9.91-2.04,13.89-6.36,11.39-12.37,25.41-14.77,39.1-7.47,12.98,6.92,18.36,19.78,14.77,36.71M2235.5,270.92c-1.77,5.2.99,8.31,5.15,10.45,3.03,1.56,5.84.3,8.27-1.72,2.92-2.43,3.48-5.63,2.28-9.03-2.19-6.25-8.12-6.59-15.7.3Z"/>
      <path class="st1" d="M2111.73,111.55c.07,9.85-3.35,17.55-10.26,22.91-5.55,4.31-6.62,9.37-6.55,15.76.23,19.47-.17,38.95.2,58.41.23,12.17-4.18,20.44-15.94,25.02-9.05,3.52-17.77,7.96-26.37,12.48-9.53,5.01-16.96,3.02-24.2-4.68-13.56-14.42-27.89-28.13-41.42-42.59-5.79-6.18-11.95-8.42-20.39-8.1-13.6.53-24.03-7.29-28.59-19.66-4.69-12.74-1.31-25.65,9.08-34.65,9.97-8.63,23.91-10.04,35.66-3.3,11.33,6.5,16.41,16.79,15.41,29.47-.48,6.06,1.12,10.05,5.32,14.11,12.31,11.9,24.33,24.1,36.35,36.28,3.58,3.63,7.18,6.27,12.3,3.1,5.65-3.49,14.29-3.78,14.27-13.38-.04-19.13-.12-38.27.03-57.4.04-5.12-3.26-7.69-6.4-10.75-11.19-10.95-13.54-25.68-6.35-38.58,6.98-12.52,19.84-18.25,34.18-15.23,13.8,2.91,22.36,13.72,23.67,30.78M1972.58,165.88c4.41-5.11,4.08-9.93-1.73-13.39-4.63-2.75-8.36-.32-11.01,3.77-1.59,2.44-1.65,5.16,0,7.57,2.93,4.27,6.95,4.8,12.74,2.04M2078.61,119.1c4.47.59,7.84-.98,9.46-5.28,1.1-2.93.92-5.99-1.46-8.28-3.44-3.32-7.5-4.83-11.25-.8-4.81,5.15-4.12,10.03,3.25,14.37Z"/>
      <path class="st1" d="M2080.81,466.86c-14.83-.64-24.26-7.76-28.98-20.66-4.62-12.63-1.64-24.05,8.13-33.06,5.21-4.81,7.01-10.02,6.91-16.84-.3-19.81,0-39.62-.28-59.43-.15-10.5,3.54-18.08,13.49-22.47,9.21-4.06,18.3-8.42,27.23-13.06,9.72-5.05,17.9-3.48,25.49,4.22,14.62,14.82,29.47,29.4,44.11,44.2,3.92,3.97,7.56,6.24,13.94,5.65,18.44-1.69,34.99,13.58,35.04,31.14.04,16.54-15.28,31.94-31.59,31.76-18.17-.21-32.44-15.82-31-34.95.43-5.74-1.14-9.49-4.96-13.26-12.43-12.26-24.66-24.72-37.01-37.06-2.82-2.82-5.65-6.44-10.29-3.47-5.88,3.76-15.66,3.78-15.89,13.31-.47,19.8-.03,39.61-.05,59.42,0,4.64,3.18,7.08,6.03,9.95,9.53,9.59,13.4,20.9,8.74,33.99-4.64,13.05-14.35,19.79-29.04,20.6M2195.98,378.49c-6.83-.4-10.27,3.01-9.55,9.64.56,5.14,4.3,7.39,9.38,6.78,3.19-.38,5.8-2.19,6.71-5.34,1.42-4.91-.67-8.45-6.54-11.08M2087.14,441.24c2.98-5.56,2.3-10.28-3.55-13.35-3.95-2.07-7.02,0-9.47,3.03-2.39,2.96-2.22,6.31-.26,9.26,3.18,4.78,7.54,4.63,13.29,1.06Z"/>
      <path class="st1" d="M2185.52,244.58c-10.77-.61-20.81,1.83-30.26-1.45,12.51-12.35,24.49-24.18,37.2-36.71,6.37,8.88,10.7,20.19,13.46,32.17.9,3.89-2.04,5.44-5.35,5.66-4.67.31-9.37.24-15.05.33Z"/>
      <path class="st4" d="M1997.12,244.43c-11.62.05-22.35.09-33.09.13-7.89.03-10.19-3.43-7.2-10.83,3.84-9.52,6.58-19.58,14.06-28.42,13.65,11.33,24.79,23.89,36.57,35.72-3.35,3.87-6.56,3.06-10.34,3.39Z"/>
      <path class="st1" d="M1997.37,302.51c3.7.45,6.96-.96,10.03,3.1-11.8,11.72-22.39,24.77-36.67,36.02-8.21-10.18-11.72-21.93-14.71-33.69-1.4-5.5,3.82-5.27,7.37-5.32,11.03-.16,22.06-.09,33.99-.11Z"/>
      <path class="st4" d="M2200.86,324.03c-2.82,6.42-4.64,12.55-9.36,16.63-12.14-12.54-23.8-24.59-36.49-37.69,16.02,0,31.76-.2,47.49.13,4.17.09,4.03,3.94,3.17,6.95-1.28,4.48-2.97,8.85-4.81,13.97Z"/>
      <path class="st0" d="M2023.21,175.26c-3.71-3.78-7.93-6.2-10.24-12.53,11.12-6.74,22.81-12.21,37.17-15.44,2.24,17.67.91,34.39.87,53.28-12.16-6.72-18.71-16.97-27.81-25.31Z"/>
      <path class="st0" d="M2115.84,348.98c11.48,11.09,22.43,21.74,34.78,33.74-13.51,8.11-24.95,14.23-40.16,16.63,0-17.09-.09-32.99.07-48.89.03-3.44,2.22-3.66,5.31-1.49Z"/>
      <path class="st4" d="M2033.94,394.59c-7.42-3.16-14.18-5.92-20.96-11.63,11.28-13.38,23.5-24.73,36.67-35.98,2.32,17.1,1.91,33.75,1.2,50.3-6.51,2.31-11.19-1.02-16.91-2.69Z"/>
      <path class="st4" d="M2123.91,150.73c8.75,3.53,17.02,6.26,25.19,12.45-11.34,13.34-23.11,25.16-37.58,38.04v-52.3c4.42-2.29,7.93.47,12.39,1.8Z"/>
    </g>
  </g>
</svg>